<?xml version="1.0" encoding="utf-8"?>
<!-- Generator: Adobe Illustrator 26.1.0, SVG Export Plug-In . SVG Version: 6.00 Build 0)  -->
<svg version="1.1" id="Layer_1" xmlns="http://www.w3.org/2000/svg" xmlns:xlink="http://www.w3.org/1999/xlink" x="0px" y="0px"
	 viewBox="0 0 1617.5 295" style="enable-background:new 0 0 1617.5 295;" xml:space="preserve">
<style type="text/css">
	.st0{fill-rule:evenodd;clip-rule:evenodd;fill:#181D4C;}
	.st1{fill-rule:evenodd;clip-rule:evenodd;fill:#1F429A;}
	.st2{fill:#1F429A;}
</style>
<g id="mSsR2I.tif">
	
		<image style="overflow:visible;" width="80" height="116" id="Layer_0" xlink:href="FC8ED95973035BDD.png"  transform="matrix(27.2536 0 0 7.2429 -15.1761 -1374.9656)">
	</image>
</g>
<g>
	<path class="st0" d="M175.1,15.8c13.2,0,23.9,10.8,23.9,24s-10.8,24-23.9,24c-13.2,0-24-10.8-24-24
		C151.1,26.5,161.9,15.8,175.1,15.8L175.1,15.8L175.1,15.8z"/>
	<path class="st0" d="M145.1,73.9c11.6,0,21.1,9.5,21.1,21.1s-9.5,21.1-21.1,21.1S124,106.6,124,95
		C124.1,83.4,133.5,73.9,145.1,73.9L145.1,73.9L145.1,73.9z"/>
	<path class="st0" d="M111.3,129.3c9.6,0,17.4,7.8,17.4,17.4c0,9.6-7.8,17.4-17.4,17.4s-17.4-7.8-17.4-17.4
		C93.9,137.1,101.7,129.3,111.3,129.3L111.3,129.3L111.3,129.3z"/>
	<path class="st0" d="M75.1,179.7c7,0,12.7,5.7,12.7,12.7s-5.7,12.7-12.7,12.7s-12.7-5.7-12.7-12.7
		C62.4,185.4,68.1,179.7,75.1,179.7L75.1,179.7L75.1,179.7z"/>
	<path class="st0" d="M44.2,224.1c4.5,0,8.1,3.7,8.1,8.1c0,4.5-3.7,8.1-8.1,8.1c-4.5,0-8.1-3.7-8.1-8.1
		C36.1,227.8,39.7,224.1,44.2,224.1L44.2,224.1L44.2,224.1z"/>
	<path class="st0" d="M208,73.9c11.6,0,21.1,9.5,21.1,21.1s-9.5,21.1-21.1,21.1s-21.1-9.5-21.1-21.1S196.3,73.9,208,73.9L208,73.9
		L208,73.9z"/>
	<path class="st0" d="M305.4,277.4c-13.2,0-24-10.8-24-24c0-13.2,10.8-24,24-24s24,10.8,24,24C329.4,266.6,318.6,277.4,305.4,277.4
		L305.4,277.4L305.4,277.4z"/>
	<path class="st0" d="M335.4,219.3c-11.6,0-21.1-9.5-21.1-21.1s9.5-21.1,21.1-21.1s21.1,9.5,21.1,21.1S347,219.3,335.4,219.3
		L335.4,219.3L335.4,219.3z"/>
	<path class="st0" d="M369.2,163.9c-9.6,0-17.4-7.8-17.4-17.4c0-9.6,7.8-17.4,17.4-17.4s17.4,7.8,17.4,17.4
		C386.6,156.1,378.8,163.9,369.2,163.9L369.2,163.9L369.2,163.9z"/>
	<path class="st0" d="M405.4,113.5c-7,0-12.7-5.7-12.7-12.7s5.7-12.7,12.7-12.7s12.7,5.7,12.7,12.7
		C418.1,107.7,412.4,113.5,405.4,113.5L405.4,113.5L405.4,113.5z"/>
	<path class="st0" d="M436.3,69.1c-4.5,0-8.1-3.7-8.1-8.1c0-4.5,3.6-8.1,8.1-8.1s8.1,3.7,8.1,8.1S440.8,69.1,436.3,69.1L436.3,69.1
		L436.3,69.1z"/>
	<path class="st0" d="M463.6,25.8c-2.9,0-5.2-2.3-5.2-5.2s2.3-5.2,5.2-5.2c2.9,0,5.2,2.3,5.2,5.2C468.8,23.5,466.5,25.8,463.6,25.8
		L463.6,25.8L463.6,25.8z"/>
	<path class="st0" d="M240.4,163.9c-9.6,0-17.4-7.8-17.4-17.4c0-9.6,7.8-17.4,17.4-17.4s17.4,7.8,17.4,17.4
		C257.8,156.1,250,163.9,240.4,163.9L240.4,163.9L240.4,163.9z"/>
	<path class="st0" d="M272.6,219.3c-11.6,0-21.1-9.5-21.1-21.1s9.5-21.1,21.1-21.1s21.1,9.5,21.1,21.1
		C293.6,209.8,284.2,219.3,272.6,219.3L272.6,219.3L272.6,219.3z"/>
	<path class="st0" d="M16.9,267.7c2.9,0,5.2,2.3,5.2,5.2c0,2.9-2.3,5.2-5.2,5.2s-5.2-2.3-5.2-5.2C11.7,270.1,14,267.7,16.9,267.7
		L16.9,267.7L16.9,267.7z"/>
	<path class="st1" d="M110.7,224.1c4.5,0,8.1,3.7,8.1,8.1c0,4.5-3.6,8.1-8.1,8.1s-8.1-3.7-8.1-8.1S106.3,224.1,110.7,224.1
		L110.7,224.1L110.7,224.1z"/>
	<path class="st1" d="M177.3,224.1c4.5,0,8.1,3.7,8.1,8.1c0,4.5-3.7,8.1-8.1,8.1c-4.5,0-8.1-3.7-8.1-8.1
		C169.1,227.8,172.8,224.1,177.3,224.1L177.3,224.1L177.3,224.1z"/>
	<path class="st1" d="M243.8,224.1c4.5,0,8.1,3.7,8.1,8.1c0,4.5-3.7,8.1-8.1,8.1c-4.5,0-8.1-3.7-8.1-8.1S239.3,224.1,243.8,224.1
		L243.8,224.1L243.8,224.1z"/>
	<path class="st1" d="M142.2,179.7c7,0,12.7,5.7,12.7,12.7s-5.7,12.7-12.7,12.7s-12.7-5.7-12.7-12.7S135.2,179.7,142.2,179.7
		L142.2,179.7L142.2,179.7z"/>
	<path class="st1" d="M212.9,179.7c7,0,12.7,5.7,12.7,12.7s-5.7,12.7-12.7,12.7s-12.7-5.7-12.7-12.7S205.9,179.7,212.9,179.7
		L212.9,179.7L212.9,179.7z"/>
	<path class="st1" d="M176.1,129.3c9.6,0,17.4,7.8,17.4,17.4c0,9.6-7.8,17.4-17.4,17.4c-9.6,0-17.4-7.8-17.4-17.4
		C158.7,137.1,166.5,129.3,176.1,129.3L176.1,129.3L176.1,129.3z"/>
	<path class="st1" d="M369.8,69.1c-4.5,0-8.1-3.7-8.1-8.1c0-4.5,3.6-8.1,8.1-8.1s8.1,3.7,8.1,8.1S374.3,69.1,369.8,69.1L369.8,69.1
		L369.8,69.1z"/>
	<path class="st1" d="M303.2,69.1c-4.5,0-8.1-3.7-8.1-8.1c0-4.5,3.7-8.1,8.1-8.1c4.5,0,8.1,3.7,8.1,8.1
		C311.4,65.4,307.7,69.1,303.2,69.1L303.2,69.1L303.2,69.1z"/>
	<path class="st1" d="M236.7,69.1c-4.5,0-8.1-3.7-8.1-8.1c0-4.5,3.7-8.1,8.1-8.1c4.5,0,8.1,3.7,8.1,8.1S241.2,69.1,236.7,69.1
		L236.7,69.1L236.7,69.1z"/>
	<path class="st1" d="M338.3,113.5c-7,0-12.7-5.7-12.7-12.7s5.7-12.7,12.7-12.7s12.7,5.7,12.7,12.7
		C351.1,107.7,345.3,113.5,338.3,113.5L338.3,113.5L338.3,113.5z"/>
	<path class="st1" d="M267.6,113.5c-7,0-12.7-5.7-12.7-12.7s5.7-12.7,12.7-12.7s12.7,5.7,12.7,12.7
		C280.3,107.7,274.6,113.5,267.6,113.5L267.6,113.5L267.6,113.5z"/>
	<path class="st1" d="M304.5,163.9c-9.6,0-17.4-7.8-17.4-17.4c0-9.6,7.8-17.4,17.4-17.4s17.4,7.8,17.4,17.4
		C321.8,156.1,314,163.9,304.5,163.9L304.5,163.9L304.5,163.9z"/>
	<path class="st1" d="M397.4,25.8c-2.9,0-5.2-2.3-5.2-5.2s2.3-5.2,5.2-5.2c2.9,0,5.2,2.3,5.2,5.2S400.3,25.8,397.4,25.8L397.4,25.8
		L397.4,25.8z"/>
	<path class="st1" d="M331.2,25.8c-2.9,0-5.2-2.3-5.2-5.2s2.3-5.2,5.2-5.2c2.9,0,5.2,2.3,5.2,5.2C336.4,23.5,334,25.8,331.2,25.8
		L331.2,25.8L331.2,25.8z"/>
	<path class="st1" d="M264.3,25.8c-2.9,0-5.2-2.3-5.2-5.2s2.3-5.2,5.2-5.2c2.9,0,5.2,2.3,5.2,5.2S267.1,25.8,264.3,25.8L264.3,25.8
		L264.3,25.8z"/>
	<path class="st1" d="M83.1,267.7c2.9,0,5.2,2.3,5.2,5.2c0,2.9-2.3,5.2-5.2,5.2c-2.9,0-5.2-2.3-5.2-5.2
		C77.9,270.1,80.3,267.7,83.1,267.7L83.1,267.7L83.1,267.7z"/>
	<path class="st1" d="M149.3,267.7c2.9,0,5.2,2.3,5.2,5.2c0,2.9-2.3,5.2-5.2,5.2s-5.2-2.3-5.2-5.2
		C144.1,270.1,146.5,267.7,149.3,267.7L149.3,267.7L149.3,267.7z"/>
	<path class="st1" d="M216.3,267.7c2.9,0,5.2,2.3,5.2,5.2c0,2.9-2.3,5.2-5.2,5.2s-5.2-2.3-5.2-5.2
		C211.1,270.1,213.4,267.7,216.3,267.7L216.3,267.7L216.3,267.7z"/>
	<polygon class="st2" points="708.8,15.4 742.5,15.4 742.5,281.9 710.9,281.9 567.8,75.7 567.1,75.7 567.1,281.9 533.5,281.9 
		533.5,15.4 565,15.4 708.1,221.6 708.8,221.6 	"/>
	<path class="st2" d="M869.4,59.6l-50.5,130.8h101L869.4,59.6L869.4,59.6z M931.5,219.9H807.3L783.1,282h-36.8L854.7,15.4h29.5
		l108.4,266.5h-36.8L931.5,219.9L931.5,219.9z"/>
	<polygon class="st2" points="997.8,15.4 1135.6,15.4 1135.6,47 1031.4,47 1031.4,131.5 1102.7,131.5 1102.7,163 1031.4,163 
		1031.4,281.9 997.8,281.9 	"/>
	<path class="st2" d="M1466.6,254.6c54.4,0,105.6-42.8,105.6-105.9S1521,42.8,1466.6,42.8S1361,85.6,1361,148.7
		C1361.1,211.8,1412.3,254.6,1466.6,254.6L1466.6,254.6z M1466.6,11.2c90.5,0,141.3,71.5,141.3,137.5c0,65.9-50.8,137.5-141.3,137.5
		s-141.3-71.5-141.3-137.5C1325.3,82.7,1376.1,11.2,1466.6,11.2L1466.6,11.2z"/>
	<path class="st2" d="M1254.9,254.6c-54.4,0-105.6-42.8-105.6-105.9s51.2-105.9,105.6-105.9c28.2,0,55.5,11.5,75.2,31.4
		c5.6-9.9,12.3-19.4,20.1-28c-23.5-21.1-55.6-35-95.3-35c-90.5,0-141.3,71.5-141.3,137.5c0,65.9,50.8,137.5,141.3,137.5
		c39.8,0,71.8-13.9,95.3-35c-7.8-8.6-14.5-18-20.1-28C1310.3,243,1283.1,254.6,1254.9,254.6L1254.9,254.6z"/>
</g>
<g>
	<path class="st0" d="M379.9-1090.3c13.2,0,23.9,10.8,23.9,24c0,13.2-10.8,24-23.9,24c-13.2,0-24-10.8-24-24
		C355.9-1079.6,366.7-1090.3,379.9-1090.3L379.9-1090.3L379.9-1090.3z"/>
	<path class="st0" d="M349.9-1032.2c11.6,0,21.1,9.5,21.1,21.1c0,11.6-9.5,21.1-21.1,21.1s-21.1-9.5-21.1-21.1
		C328.9-1022.7,338.3-1032.2,349.9-1032.2L349.9-1032.2L349.9-1032.2z"/>
	<path class="st0" d="M316.1-976.8c9.6,0,17.4,7.8,17.4,17.4s-7.8,17.4-17.4,17.4c-9.6,0-17.4-7.8-17.4-17.4
		C298.7-969,306.5-976.8,316.1-976.8L316.1-976.8L316.1-976.8z"/>
	<path class="st0" d="M279.9-926.4c7,0,12.7,5.7,12.7,12.7s-5.7,12.7-12.7,12.7s-12.7-5.7-12.7-12.7S272.9-926.4,279.9-926.4
		L279.9-926.4L279.9-926.4z"/>
	<path class="st0" d="M249-882c4.5,0,8.1,3.7,8.1,8.1c0,4.5-3.7,8.1-8.1,8.1c-4.5,0-8.1-3.7-8.1-8.1C240.9-878.3,244.5-882,249-882
		L249-882L249-882z"/>
	<path class="st0" d="M412.8-1032.2c11.6,0,21.1,9.5,21.1,21.1c0,11.6-9.5,21.1-21.1,21.1s-21.1-9.5-21.1-21.1
		C391.7-1022.7,401.1-1032.2,412.8-1032.2L412.8-1032.2L412.8-1032.2z"/>
	<path class="st0" d="M510.2-828.7c-13.2,0-24-10.8-24-24s10.8-24,24-24s24,10.8,24,24S523.4-828.7,510.2-828.7L510.2-828.7
		L510.2-828.7z"/>
	<path class="st0" d="M540.2-886.8c-11.6,0-21.1-9.5-21.1-21.1c0-11.6,9.5-21.1,21.1-21.1c11.6,0,21.1,9.5,21.1,21.1
		C561.3-896.3,551.8-886.8,540.2-886.8L540.2-886.8L540.2-886.8z"/>
	<path class="st0" d="M574-942.2c-9.6,0-17.4-7.8-17.4-17.4S564.4-977,574-977c9.6,0,17.4,7.8,17.4,17.4
		C591.4-950,583.6-942.2,574-942.2L574-942.2L574-942.2z"/>
	<path class="st0" d="M610.2-992.6c-7,0-12.7-5.7-12.7-12.7s5.7-12.7,12.7-12.7s12.7,5.7,12.7,12.7
		C622.9-998.4,617.2-992.6,610.2-992.6L610.2-992.6L610.2-992.6z"/>
	<path class="st0" d="M641.1-1037c-4.5,0-8.1-3.7-8.1-8.1c0-4.5,3.6-8.1,8.1-8.1s8.1,3.7,8.1,8.1S645.6-1037,641.1-1037L641.1-1037
		L641.1-1037z"/>
	<path class="st0" d="M668.4-1080.3c-2.9,0-5.2-2.3-5.2-5.2s2.3-5.2,5.2-5.2s5.2,2.3,5.2,5.2S671.3-1080.3,668.4-1080.3
		L668.4-1080.3L668.4-1080.3z"/>
	<path class="st0" d="M445.2-942.2c-9.6,0-17.4-7.8-17.4-17.4s7.8-17.4,17.4-17.4c9.6,0,17.4,7.8,17.4,17.4
		C462.6-950,454.8-942.2,445.2-942.2L445.2-942.2L445.2-942.2z"/>
	<path class="st0" d="M477.4-886.8c-11.6,0-21.1-9.5-21.1-21.1c0-11.6,9.5-21.1,21.1-21.1s21.1,9.5,21.1,21.1
		C498.4-896.3,489-886.8,477.4-886.8L477.4-886.8L477.4-886.8z"/>
	<path class="st0" d="M221.7-838.4c2.9,0,5.2,2.3,5.2,5.2s-2.3,5.2-5.2,5.2c-2.9,0-5.2-2.3-5.2-5.2
		C216.5-836,218.8-838.4,221.7-838.4L221.7-838.4L221.7-838.4z"/>
	<path class="st1" d="M315.5-882c4.5,0,8.1,3.7,8.1,8.1c0,4.5-3.6,8.1-8.1,8.1s-8.1-3.7-8.1-8.1S311.1-882,315.5-882L315.5-882
		L315.5-882z"/>
	<path class="st1" d="M382.1-882c4.5,0,8.1,3.7,8.1,8.1c0,4.5-3.7,8.1-8.1,8.1c-4.5,0-8.1-3.7-8.1-8.1
		C373.9-878.3,377.6-882,382.1-882L382.1-882L382.1-882z"/>
	<path class="st1" d="M448.6-882c4.5,0,8.1,3.7,8.1,8.1c0,4.5-3.7,8.1-8.1,8.1c-4.5,0-8.1-3.7-8.1-8.1S444.1-882,448.6-882
		L448.6-882L448.6-882z"/>
	<path class="st1" d="M347-926.4c7,0,12.7,5.7,12.7,12.7S354-901,347-901s-12.7-5.7-12.7-12.7S340-926.4,347-926.4L347-926.4
		L347-926.4z"/>
	<path class="st1" d="M417.7-926.4c7,0,12.7,5.7,12.7,12.7s-5.7,12.7-12.7,12.7s-12.7-5.7-12.7-12.7S410.7-926.4,417.7-926.4
		L417.7-926.4L417.7-926.4z"/>
	<path class="st1" d="M380.9-976.8c9.6,0,17.4,7.8,17.4,17.4s-7.8,17.4-17.4,17.4s-17.4-7.8-17.4-17.4S371.3-976.8,380.9-976.8
		L380.9-976.8L380.9-976.8z"/>
	<path class="st1" d="M574.6-1037c-4.5,0-8.1-3.7-8.1-8.1c0-4.5,3.6-8.1,8.1-8.1s8.1,3.7,8.1,8.1S579.1-1037,574.6-1037L574.6-1037
		L574.6-1037z"/>
	<path class="st1" d="M508-1037c-4.5,0-8.1-3.7-8.1-8.1c0-4.5,3.7-8.1,8.1-8.1c4.5,0,8.1,3.7,8.1,8.1
		C516.2-1040.7,512.5-1037,508-1037L508-1037L508-1037z"/>
	<path class="st1" d="M441.5-1037c-4.5,0-8.1-3.7-8.1-8.1c0-4.5,3.7-8.1,8.1-8.1c4.5,0,8.1,3.7,8.1,8.1S446-1037,441.5-1037
		L441.5-1037L441.5-1037z"/>
	<path class="st1" d="M543.1-992.6c-7,0-12.7-5.7-12.7-12.7s5.7-12.7,12.7-12.7s12.7,5.7,12.7,12.7
		C555.9-998.4,550.1-992.6,543.1-992.6L543.1-992.6L543.1-992.6z"/>
	<path class="st1" d="M472.4-992.6c-7,0-12.7-5.7-12.7-12.7s5.7-12.7,12.7-12.7s12.7,5.7,12.7,12.7
		C485.1-998.4,479.4-992.6,472.4-992.6L472.4-992.6L472.4-992.6z"/>
	<path class="st1" d="M509.3-942.2c-9.6,0-17.4-7.8-17.4-17.4s7.8-17.4,17.4-17.4s17.4,7.8,17.4,17.4
		C526.6-950,518.8-942.2,509.3-942.2L509.3-942.2L509.3-942.2z"/>
	<path class="st1" d="M602.2-1080.3c-2.9,0-5.2-2.3-5.2-5.2s2.3-5.2,5.2-5.2s5.2,2.3,5.2,5.2S605.1-1080.3,602.2-1080.3
		L602.2-1080.3L602.2-1080.3z"/>
	<path class="st1" d="M536-1080.3c-2.9,0-5.2-2.3-5.2-5.2s2.3-5.2,5.2-5.2c2.9,0,5.2,2.3,5.2,5.2
		C541.2-1082.6,538.8-1080.3,536-1080.3L536-1080.3L536-1080.3z"/>
	<path class="st1" d="M469.1-1080.3c-2.9,0-5.2-2.3-5.2-5.2s2.3-5.2,5.2-5.2c2.9,0,5.2,2.3,5.2,5.2S471.9-1080.3,469.1-1080.3
		L469.1-1080.3L469.1-1080.3z"/>
	<path class="st1" d="M287.9-838.4c2.9,0,5.2,2.3,5.2,5.2s-2.3,5.2-5.2,5.2s-5.2-2.3-5.2-5.2C282.7-836,285.1-838.4,287.9-838.4
		L287.9-838.4L287.9-838.4z"/>
	<path class="st1" d="M354.1-838.4c2.9,0,5.2,2.3,5.2,5.2s-2.3,5.2-5.2,5.2s-5.2-2.3-5.2-5.2C348.9-836,351.3-838.4,354.1-838.4
		L354.1-838.4L354.1-838.4z"/>
	<path class="st1" d="M421.1-838.4c2.9,0,5.2,2.3,5.2,5.2s-2.3,5.2-5.2,5.2s-5.2-2.3-5.2-5.2C415.9-836,418.2-838.4,421.1-838.4
		L421.1-838.4L421.1-838.4z"/>
	<polygon class="st2" points="913.6,-1090.7 947.3,-1090.7 947.3,-824.2 915.7,-824.2 772.6,-1030.4 771.9,-1030.4 771.9,-824.2 
		738.3,-824.2 738.3,-1090.7 769.8,-1090.7 912.9,-884.5 913.6,-884.5 	"/>
	<path class="st2" d="M1074.2-1046.5l-50.5,130.8h101L1074.2-1046.5L1074.2-1046.5z M1136.3-886.2h-124.2l-24.2,62.1h-36.8
		l108.4-266.6h29.5l108.4,266.5h-36.8L1136.3-886.2L1136.3-886.2z"/>
	<polygon class="st2" points="1202.6,-1090.7 1340.4,-1090.7 1340.4,-1059.1 1236.2,-1059.1 1236.2,-974.6 1307.5,-974.6 
		1307.5,-943.1 1236.2,-943.1 1236.2,-824.2 1202.6,-824.2 	"/>
	<path class="st2" d="M1671.4-851.5c54.4,0,105.6-42.8,105.6-105.9s-51.2-105.9-105.6-105.9s-105.6,42.8-105.6,105.9
		C1565.9-894.3,1617.1-851.5,1671.4-851.5L1671.4-851.5z M1671.4-1094.9c90.5,0,141.3,71.5,141.3,137.5
		c0,65.9-50.8,137.5-141.3,137.5s-141.3-71.5-141.3-137.5C1530.1-1023.4,1580.9-1094.9,1671.4-1094.9L1671.4-1094.9z"/>
	<path class="st2" d="M1459.7-851.5c-54.4,0-105.6-42.8-105.6-105.9s51.2-105.9,105.6-105.9c28.2,0,55.5,11.5,75.2,31.4
		c5.6-9.9,12.3-19.4,20.1-28c-23.5-21.1-55.6-35-95.3-35c-90.5,0-141.3,71.5-141.3,137.5c0,65.9,50.8,137.5,141.3,137.5
		c39.8,0,71.8-13.9,95.3-35c-7.8-8.6-14.5-18-20.1-28C1515.1-863.1,1487.9-851.5,1459.7-851.5L1459.7-851.5z"/>
</g>
</svg>
