<?xml version="1.0" encoding="utf-8"?>
<!-- Generator: Adobe Illustrator 26.1.0, SVG Export Plug-In . SVG Version: 6.00 Build 0)  -->
<svg version="1.1" id="Layer_1" xmlns="http://www.w3.org/2000/svg" xmlns:xlink="http://www.w3.org/1999/xlink" x="0px" y="0px"
	 viewBox="0 0 1617.5 295" style="enable-background:new 0 0 1617.5 295;" xml:space="preserve">
<style type="text/css">
	.st0{fill-rule:evenodd;clip-rule:evenodd;fill:#181D4C;}
	.st1{fill-rule:evenodd;clip-rule:evenodd;fill:#627CBC;}
	.st2{fill:#181D4C;}
</style>
<g>
	<path class="st0" d="M175.1,15.8c13.2,0,23.9,10.8,23.9,24s-10.8,24-23.9,24c-13.2,0-24-10.8-24-24
		C151.1,26.5,161.9,15.8,175.1,15.8L175.1,15.8L175.1,15.8z"/>
	<path class="st0" d="M145.1,73.9c11.6,0,21.1,9.5,21.1,21.1s-9.5,21.1-21.1,21.1S124,106.6,124,95
		C124.1,83.4,133.5,73.9,145.1,73.9L145.1,73.9L145.1,73.9z"/>
	<path class="st0" d="M111.3,129.3c9.6,0,17.4,7.8,17.4,17.4c0,9.6-7.8,17.4-17.4,17.4s-17.4-7.8-17.4-17.4
		C93.9,137.1,101.7,129.3,111.3,129.3L111.3,129.3L111.3,129.3z"/>
	<path class="st0" d="M75.1,179.7c7,0,12.7,5.7,12.7,12.7s-5.7,12.7-12.7,12.7s-12.7-5.7-12.7-12.7
		C62.4,185.4,68.1,179.7,75.1,179.7L75.1,179.7L75.1,179.7z"/>
	<path class="st0" d="M44.2,224.1c4.5,0,8.1,3.7,8.1,8.1c0,4.5-3.7,8.1-8.1,8.1c-4.5,0-8.1-3.7-8.1-8.1
		C36.1,227.8,39.7,224.1,44.2,224.1L44.2,224.1L44.2,224.1z"/>
	<path class="st0" d="M208,73.9c11.6,0,21.1,9.5,21.1,21.1s-9.5,21.1-21.1,21.1s-21.1-9.5-21.1-21.1S196.3,73.9,208,73.9L208,73.9
		L208,73.9z"/>
	<path class="st0" d="M305.4,277.4c-13.2,0-24-10.8-24-24c0-13.2,10.8-24,24-24s24,10.8,24,24C329.4,266.6,318.6,277.4,305.4,277.4
		L305.4,277.4L305.4,277.4z"/>
	<path class="st0" d="M335.4,219.3c-11.6,0-21.1-9.5-21.1-21.1s9.5-21.1,21.1-21.1s21.1,9.5,21.1,21.1S347,219.3,335.4,219.3
		L335.4,219.3L335.4,219.3z"/>
	<path class="st0" d="M369.2,163.9c-9.6,0-17.4-7.8-17.4-17.4c0-9.6,7.8-17.4,17.4-17.4s17.4,7.8,17.4,17.4
		C386.6,156.1,378.8,163.9,369.2,163.9L369.2,163.9L369.2,163.9z"/>
	<path class="st0" d="M405.4,113.5c-7,0-12.7-5.7-12.7-12.7s5.7-12.7,12.7-12.7s12.7,5.7,12.7,12.7
		C418.1,107.7,412.4,113.5,405.4,113.5L405.4,113.5L405.4,113.5z"/>
	<path class="st0" d="M436.3,69.1c-4.5,0-8.1-3.7-8.1-8.1c0-4.5,3.6-8.1,8.1-8.1s8.1,3.7,8.1,8.1S440.8,69.1,436.3,69.1L436.3,69.1
		L436.3,69.1z"/>
	<path class="st0" d="M463.6,25.8c-2.9,0-5.2-2.3-5.2-5.2s2.3-5.2,5.2-5.2c2.9,0,5.2,2.3,5.2,5.2C468.8,23.5,466.5,25.8,463.6,25.8
		L463.6,25.8L463.6,25.8z"/>
	<path class="st0" d="M240.4,163.9c-9.6,0-17.4-7.8-17.4-17.4c0-9.6,7.8-17.4,17.4-17.4s17.4,7.8,17.4,17.4
		C257.8,156.1,250,163.9,240.4,163.9L240.4,163.9L240.4,163.9z"/>
	<path class="st0" d="M272.6,219.3c-11.6,0-21.1-9.5-21.1-21.1s9.5-21.1,21.1-21.1s21.1,9.5,21.1,21.1
		C293.6,209.8,284.2,219.3,272.6,219.3L272.6,219.3L272.6,219.3z"/>
	<path class="st0" d="M16.9,267.7c2.9,0,5.2,2.3,5.2,5.2c0,2.9-2.3,5.2-5.2,5.2s-5.2-2.3-5.2-5.2C11.7,270.1,14,267.7,16.9,267.7
		L16.9,267.7L16.9,267.7z"/>
	<path class="st1" d="M110.7,224.1c4.5,0,8.1,3.7,8.1,8.1c0,4.5-3.6,8.1-8.1,8.1s-8.1-3.7-8.1-8.1S106.3,224.1,110.7,224.1
		L110.7,224.1L110.7,224.1z"/>
	<path class="st1" d="M177.3,224.1c4.5,0,8.1,3.7,8.1,8.1c0,4.5-3.7,8.1-8.1,8.1c-4.5,0-8.1-3.7-8.1-8.1
		C169.1,227.8,172.8,224.1,177.3,224.1L177.3,224.1L177.3,224.1z"/>
	<path class="st1" d="M243.8,224.1c4.5,0,8.1,3.7,8.1,8.1c0,4.5-3.7,8.1-8.1,8.1c-4.5,0-8.1-3.7-8.1-8.1S239.3,224.1,243.8,224.1
		L243.8,224.1L243.8,224.1z"/>
	<path class="st1" d="M142.2,179.7c7,0,12.7,5.7,12.7,12.7s-5.7,12.7-12.7,12.7s-12.7-5.7-12.7-12.7S135.2,179.7,142.2,179.7
		L142.2,179.7L142.2,179.7z"/>
	<path class="st1" d="M212.9,179.7c7,0,12.7,5.7,12.7,12.7s-5.7,12.7-12.7,12.7s-12.7-5.7-12.7-12.7S205.9,179.7,212.9,179.7
		L212.9,179.7L212.9,179.7z"/>
	<path class="st1" d="M176.1,129.3c9.6,0,17.4,7.8,17.4,17.4c0,9.6-7.8,17.4-17.4,17.4c-9.6,0-17.4-7.8-17.4-17.4
		C158.7,137.1,166.5,129.3,176.1,129.3L176.1,129.3L176.1,129.3z"/>
	<path class="st1" d="M369.8,69.1c-4.5,0-8.1-3.7-8.1-8.1c0-4.5,3.6-8.1,8.1-8.1s8.1,3.7,8.1,8.1S374.3,69.1,369.8,69.1L369.8,69.1
		L369.8,69.1z"/>
	<path class="st1" d="M303.2,69.1c-4.5,0-8.1-3.7-8.1-8.1c0-4.5,3.7-8.1,8.1-8.1c4.5,0,8.1,3.7,8.1,8.1
		C311.4,65.4,307.7,69.1,303.2,69.1L303.2,69.1L303.2,69.1z"/>
	<path class="st1" d="M236.7,69.1c-4.5,0-8.1-3.7-8.1-8.1c0-4.5,3.7-8.1,8.1-8.1c4.5,0,8.1,3.7,8.1,8.1S241.2,69.1,236.7,69.1
		L236.7,69.1L236.7,69.1z"/>
	<path class="st1" d="M338.3,113.5c-7,0-12.7-5.7-12.7-12.7s5.7-12.7,12.7-12.7s12.7,5.7,12.7,12.7
		C351.1,107.7,345.3,113.5,338.3,113.5L338.3,113.5L338.3,113.5z"/>
	<path class="st1" d="M267.6,113.5c-7,0-12.7-5.7-12.7-12.7s5.7-12.7,12.7-12.7s12.7,5.7,12.7,12.7
		C280.3,107.7,274.6,113.5,267.6,113.5L267.6,113.5L267.6,113.5z"/>
	<path class="st1" d="M304.5,163.9c-9.6,0-17.4-7.8-17.4-17.4c0-9.6,7.8-17.4,17.4-17.4s17.4,7.8,17.4,17.4
		C321.8,156.1,314,163.9,304.5,163.9L304.5,163.9L304.5,163.9z"/>
	<path class="st1" d="M397.4,25.8c-2.9,0-5.2-2.3-5.2-5.2s2.3-5.2,5.2-5.2c2.9,0,5.2,2.3,5.2,5.2S400.3,25.8,397.4,25.8L397.4,25.8
		L397.4,25.8z"/>
	<path class="st1" d="M331.2,25.8c-2.9,0-5.2-2.3-5.2-5.2s2.3-5.2,5.2-5.2c2.9,0,5.2,2.3,5.2,5.2C336.4,23.5,334,25.8,331.2,25.8
		L331.2,25.8L331.2,25.8z"/>
	<path class="st1" d="M264.3,25.8c-2.9,0-5.2-2.3-5.2-5.2s2.3-5.2,5.2-5.2c2.9,0,5.2,2.3,5.2,5.2S267.1,25.8,264.3,25.8L264.3,25.8
		L264.3,25.8z"/>
	<path class="st1" d="M83.1,267.7c2.9,0,5.2,2.3,5.2,5.2c0,2.9-2.3,5.2-5.2,5.2c-2.9,0-5.2-2.3-5.2-5.2
		C77.9,270.1,80.3,267.7,83.1,267.7L83.1,267.7L83.1,267.7z"/>
	<path class="st1" d="M149.3,267.7c2.9,0,5.2,2.3,5.2,5.2c0,2.9-2.3,5.2-5.2,5.2s-5.2-2.3-5.2-5.2
		C144.1,270.1,146.5,267.7,149.3,267.7L149.3,267.7L149.3,267.7z"/>
	<path class="st1" d="M216.3,267.7c2.9,0,5.2,2.3,5.2,5.2c0,2.9-2.3,5.2-5.2,5.2s-5.2-2.3-5.2-5.2
		C211.1,270.1,213.4,267.7,216.3,267.7L216.3,267.7L216.3,267.7z"/>
	<polygon class="st2" points="708.8,15.4 742.5,15.4 742.5,281.9 710.9,281.9 567.8,75.7 567.1,75.7 567.1,281.9 533.5,281.9 
		533.5,15.4 565,15.4 708.1,221.6 708.8,221.6 	"/>
	<path class="st2" d="M869.4,59.6l-50.5,130.8h101L869.4,59.6L869.4,59.6z M931.5,219.9H807.3L783.1,282h-36.8L854.7,15.4h29.5
		l108.4,266.5h-36.8L931.5,219.9L931.5,219.9z"/>
	<polygon class="st2" points="997.8,15.4 1135.6,15.4 1135.6,47 1031.4,47 1031.4,131.5 1102.7,131.5 1102.7,163 1031.4,163 
		1031.4,281.9 997.8,281.9 	"/>
	<path class="st2" d="M1466.6,254.6c54.4,0,105.6-42.8,105.6-105.9S1521,42.8,1466.6,42.8S1361,85.6,1361,148.7
		C1361.1,211.8,1412.3,254.6,1466.6,254.6L1466.6,254.6z M1466.6,11.2c90.5,0,141.3,71.5,141.3,137.5c0,65.9-50.8,137.5-141.3,137.5
		s-141.3-71.5-141.3-137.5C1325.3,82.7,1376.1,11.2,1466.6,11.2L1466.6,11.2z"/>
	<path class="st2" d="M1254.9,254.6c-54.4,0-105.6-42.8-105.6-105.9s51.2-105.9,105.6-105.9c28.2,0,55.5,11.5,75.2,31.4
		c5.6-9.9,12.3-19.4,20.1-28c-23.5-21.1-55.6-35-95.3-35c-90.5,0-141.3,71.5-141.3,137.5c0,65.9,50.8,137.5,141.3,137.5
		c39.8,0,71.8-13.9,95.3-35c-7.8-8.6-14.5-18-20.1-28C1310.3,243,1283.1,254.6,1254.9,254.6L1254.9,254.6z"/>
</g>
</svg>
